<svg xmlns="http://www.w3.org/2000/svg" viewBox="0 0 200 200" width="200" height="200">
  <!-- Pizza base circular -->
  <circle cx="100" cy="100" r="85" fill="#FFD54F" stroke="#F57C00" stroke-width="4"/>
  
  <!-- Texture de masa -->
  <circle cx="60" cy="70" r="3" fill="#F9A825" opacity="0.3"/>
  <circle cx="120" cy="65" r="4" fill="#F9A825" opacity="0.3"/>
  <circle cx="75" cy="130" r="3.5" fill="#F9A825" opacity="0.3"/>
  <circle cx="140" cy="120" r="3" fill="#F9A825" opacity="0.3"/>
  <circle cx="100" cy="145" r="3.5" fill="#F9A825" opacity="0.3"/>
  
  <!-- Pepperoni slices -->
  <circle cx="70" cy="85" r="12" fill="#D32F2F" stroke="#B71C1C" stroke-width="1.5"/>
  <circle cx="130" cy="90" r="12" fill="#D32F2F" stroke="#B71C1C" stroke-width="1.5"/>
  <circle cx="100" cy="115" r="12" fill="#D32F2F" stroke="#B71C1C" stroke-width="1.5"/>
  <circle cx="85" cy="130" r="10" fill="#D32F2F" stroke="#B71C1C" stroke-width="1.5"/>
  <circle cx="115" cy="125" r="10" fill="#D32F2F" stroke="#B71C1C" stroke-width="1.5"/>
  
  <!-- Pepperoni texture -->
  <circle cx="70" cy="82" r="2" fill="#FF5252" opacity="0.5"/>
  <circle cx="130" cy="87" r="2" fill="#FF5252" opacity="0.5"/>
  <circle cx="100" cy="112" r="2" fill="#FF5252" opacity="0.5"/>
  
  <!-- Basil leaves -->
  <ellipse cx="95" cy="70" rx="10" ry="14" fill="#43A047" transform="rotate(-20 95 70)"/>
  <ellipse cx="125" cy="110" rx="9" ry="13" fill="#43A047" transform="rotate(35 125 110)"/>
  <path d="M 95 70 Q 98 76 95 82" stroke="#2E7D32" stroke-width="1.5" fill="none"/>
  <path d="M 125 110 Q 128 116 125 122" stroke="#2E7D32" stroke-width="1.5" fill="none"/>
  
  <!-- Cheese highlights -->
  <path d="M 50 95 Q 55 97 60 95" stroke="#FFEB3B" stroke-width="2" fill="none" opacity="0.6"/>
  <path d="M 140 100 Q 145 102 150 100" stroke="#FFEB3B" stroke-width="2" fill="none" opacity="0.6"/>
  <path d="M 90 150 Q 95 152 100 150" stroke="#FFEB3B" stroke-width="2" fill="none" opacity="0.6"/>
  
  <!-- Pizza slice cut lines -->
  <line x1="100" y1="15" x2="100" y2="185" stroke="#F57C00" stroke-width="2" opacity="0.3"/>
  <line x1="15" y1="100" x2="185" y2="100" stroke="#F57C00" stroke-width="2" opacity="0.3"/>
  <line x1="35" y1="35" x2="165" y2="165" stroke="#F57C00" stroke-width="2" opacity="0.3"/>
  <line x1="165" y1="35" x2="35" y2="165" stroke="#F57C00" stroke-width="2" opacity="0.3"/>
  
  <!-- Outer crust highlight -->
  <path d="M 100 15 A 85 85 0 0 1 170 64" fill="none" stroke="#FFECB3" stroke-width="3" opacity="0.5"/>
</svg>
