<svg xmlns="http://www.w3.org/2000/svg" width="24" height="24" viewBox="0 0 24 24" fill="none" stroke="currentColor" stroke-width="2" stroke-linecap="round" stroke-linejoin="round">
  <path d="M14.7 6.3a1 1 0 0 0 0 1.4l1.6 1.6a1 1 0 0 0 1.4 0l3.77-3.77a6 6 0 0 1-7.94 7.94l-1.6-1.6a1 1 0 0 0-1.4 0l-3.77 3.77a6 6 0 0 1 7.94 7.94l1.6-1.6a1 1 0 0 0 1.4 0l3.77-3.77a6 6 0 0 1 7.94 7.94l-1.6-1.6a1 1 0 0 0-1.4 0l-3.77 3.77a6 6 0 0 1-7.94 7.94l-1.6-1.6a1 1 0 0 0-1.4 0L3.33 18.03a6 6 0 0 1-7.94-7.94l1.6-1.6a1 1 0 0 0 0-1.4L4 6.3a1 1 0 0 0 0-1.4l-1.6-1.6a6 6 0 0 1 7.94-7.94l1.6 1.6zM12 2v2M4.22 4.22l1.42 1.42M2 12h2M4.22 19.78l1.42-1.42M12 20v2M19.78 19.78l-1.42-1.42M20 12h2M19.78 4.22l-1.42 1.42"/>
  <path d="m14 6 2-2 2-2"/>
  <path d="m5 18 2 2 2 2"/>
</svg>